<svg width="17" height="18" viewBox="0 0 17 18" fill="none" xmlns="http://www.w3.org/2000/svg">
<path d="M9.57185 5.74807C9.39103 4.37923 8.85264 3.14733 8.06709 2.12627C7.87683 1.87931 8.06681 1.51798 8.3765 1.55505C11.9467 1.98564 14.8752 4.91919 15.0564 8.75986C15.2268 12.3852 12.7158 15.6944 9.1773 16.5031C6.72212 17.0643 4.33308 16.3838 2.58708 14.922C2.35133 14.7242 2.47905 14.3359 2.78524 14.3084C2.8665 14.3015 2.94871 14.2923 3.03071 14.2814C7.19329 13.7316 10.1219 9.91148 9.57185 5.74807Z" fill="white"/>
<path fill-rule="evenodd" clip-rule="evenodd" d="M8.41039 1.27191C7.82545 1.20189 7.51182 1.87279 7.84119 2.30031C8.59729 3.28314 9.11514 4.46823 9.28914 5.78542C9.81852 9.79271 6.99979 13.4695 2.99337 13.9987C2.9151 14.0091 2.83726 14.0178 2.76091 14.0243L2.76034 14.0243L2.75978 14.0244C2.2109 14.0736 1.96591 14.7731 2.40381 15.1404L2.40401 15.1406C4.21493 16.6568 6.69437 17.3632 9.24083 16.7811C12.914 15.9416 15.5181 12.5096 15.3413 8.74648L15.3413 8.74643C15.1533 4.76197 12.1142 1.71861 8.41064 1.27194L8.41039 1.27191ZM14.7716 8.77325C14.5971 5.07643 11.7792 2.25274 8.34248 1.83818L14.7716 8.77325ZM8.34248 1.83818C8.32512 1.83613 8.3156 1.83967 8.30951 1.84307C8.30185 1.84733 8.29278 1.85555 8.2857 1.86877C8.27145 1.89538 8.27236 1.92546 8.29299 1.95223L8.29311 1.95238C9.10805 3.01165 9.66692 4.29029 9.85457 5.71073C10.4252 10.0302 7.3868 13.9936 3.06806 14.5642C2.98263 14.5754 2.89636 14.5851 2.81052 14.5925C2.7939 14.594 2.78358 14.5995 2.77592 14.6059C2.76703 14.6135 2.75883 14.625 2.75411 14.6395C2.7494 14.654 2.74957 14.6671 2.75194 14.6764C2.75389 14.6841 2.75807 14.6932 2.77035 14.7035C4.45142 16.1109 6.74997 16.7655 9.11375 16.2251C12.5175 15.4472 14.9354 12.2609 14.7716 8.7733" fill="white"/>
</svg>
