<svg width="25" height="24" viewBox="0 0 25 24" fill="none" xmlns="http://www.w3.org/2000/svg">
<path d="M5.88428 9.74994C5.88303 8.86045 6.05786 7.97951 6.39867 7.1579C6.73947 6.33628 7.23953 5.59025 7.87001 4.9628C8.50049 4.33535 9.24892 3.83889 10.0722 3.50204C10.8954 3.16519 11.7772 2.99461 12.6667 3.00013C16.3782 3.02772 19.347 6.11275 19.347 9.83468V10.4999C19.347 13.8577 20.0494 15.8061 20.6682 16.871C20.7348 16.9848 20.7703 17.1142 20.771 17.246C20.7717 17.3779 20.7376 17.5076 20.6722 17.6221C20.6068 17.7366 20.5123 17.8318 20.3983 17.8982C20.2843 17.9645 20.1549 17.9996 20.023 17.9999H5.20746C5.07557 17.9996 4.9461 17.9645 4.83212 17.8981C4.71814 17.8318 4.62367 17.7366 4.55825 17.622C4.49282 17.5075 4.45876 17.3778 4.45948 17.2459C4.46021 17.114 4.49571 16.9846 4.5624 16.8709C5.18145 15.8059 5.88427 13.8575 5.88427 10.4999L5.88428 9.74994Z" stroke="#263238" stroke-width="2" stroke-linecap="round" stroke-linejoin="round"/>
<path d="M9.61523 18V18.75C9.61523 19.5456 9.9313 20.3087 10.4939 20.8713C11.0565 21.4339 11.8196 21.75 12.6152 21.75C13.4109 21.75 14.1739 21.4339 14.7366 20.8713C15.2992 20.3087 15.6152 19.5456 15.6152 18.75V18" stroke="#263238" stroke-width="2" stroke-linecap="round" stroke-linejoin="round"/>
<rect x="14.6152" width="10" height="10" rx="5" fill="#FF6363"/>
</svg>
