<svg width="25" height="24" viewBox="0 0 25 24" fill="none" xmlns="http://www.w3.org/2000/svg">
<path d="M12.6152 21C17.5858 21 21.6152 16.9706 21.6152 12C21.6152 7.02944 17.5858 3 12.6152 3C7.64467 3 3.61523 7.02944 3.61523 12C3.61523 16.9706 7.64467 21 12.6152 21Z" stroke="#263238" stroke-width="2" stroke-linecap="round" stroke-linejoin="round"/>
<path d="M12.6152 18C13.4437 18 14.1152 17.3284 14.1152 16.5C14.1152 15.6716 13.4437 15 12.6152 15C11.7868 15 11.1152 15.6716 11.1152 16.5C11.1152 17.3284 11.7868 18 12.6152 18Z" fill="#263238"/>
<path d="M12.6152 12.7504C13.1344 12.7504 13.6419 12.5964 14.0736 12.308C14.5053 12.0195 14.8417 11.6096 15.0404 11.1299C15.2391 10.6503 15.2911 10.1225 15.1898 9.61326C15.0885 9.10406 14.8385 8.63633 14.4714 8.26921C14.1043 7.9021 13.6365 7.65209 13.1273 7.55081C12.6181 7.44952 12.0903 7.5015 11.6107 7.70018C11.131 7.89886 10.7211 8.23532 10.4326 8.667C10.1442 9.09867 9.99023 9.60619 9.99023 10.1254" stroke="#263238" stroke-width="2" stroke-linecap="round" stroke-linejoin="round"/>
</svg>
